{
	"asset":{
		"generator":"Khronos glTF Blender I/O v3.6.27",
		"version":"2.0"
	},
	"extensionsUsed":[
		"KHR_materials_specular",
		"KHR_materials_ior"
	],
	"scene":0,
	"scenes":[
		{
			"name":"Scene",
			"nodes":[
				0
			]
		}
	],
	"nodes":[
		{
			"mesh":0,
			"name":"TQ_ARD-node"
		}
	],
	"materials":[
		{
			"doubleSided":true,
			"extensions":{
				"KHR_materials_specular":{
					"specularColorFactor":[
						0,
						0,
						0
					]
				},
				"KHR_materials_ior":{
					"ior":0
				}
			},
			"name":"TQ_ARD_front",
			"pbrMetallicRoughness":{
				"baseColorTexture":{
					"index":0
				},
				"metallicFactor":0,
				"roughnessFactor":0.5
			}
		},
		{
			"doubleSided":true,
			"extensions":{
				"KHR_materials_specular":{
					"specularColorFactor":[
						0,
						0,
						0
					]
				},
				"KHR_materials_ior":{
					"ior":0
				}
			},
			"name":"TQ_ARD_back",
			"pbrMetallicRoughness":{
				"baseColorFactor":[
					0.996078372001648,
					0.9019607901573181,
					0.6627451181411743,
					1
				],
				"metallicFactor":0,
				"roughnessFactor":0.5
			}
		},
		{
			"doubleSided":true,
			"extensions":{
				"KHR_materials_specular":{
					"specularColorFactor":[
						0,
						0,
						0
					]
				},
				"KHR_materials_ior":{
					"ior":0
				}
			},
			"name":"TQ_ARD_edge",
			"pbrMetallicRoughness":{
				"baseColorTexture":{
					"index":1
				},
				"metallicFactor":0,
				"roughnessFactor":0.5
			}
		}
	],
	"meshes":[
		{
			"name":"TQ_ARD-geom",
			"primitives":[
				{
					"attributes":{
						"POSITION":0,
						"NORMAL":1,
						"TEXCOORD_0":2
					},
					"indices":3,
					"material":0
				},
				{
					"attributes":{
						"POSITION":4,
						"NORMAL":5,
						"TEXCOORD_0":6
					},
					"indices":7,
					"material":1
				},
				{
					"attributes":{
						"POSITION":8,
						"NORMAL":9,
						"TEXCOORD_0":10
					},
					"indices":11,
					"material":2
				}
			]
		}
	],
	"textures":[
		{
			"sampler":0,
			"source":0
		},
		{
			"sampler":0,
			"source":1
		}
	],
	"images":[
		{
			"bufferView":4,
			"mimeType":"image/jpeg",
			"name":"1"
		},
		{
			"bufferView":13,
			"mimeType":"image/png",
			"name":"TQ_ARD-I1"
		}
	],
	"accessors":[
		{
			"bufferView":0,
			"componentType":5126,
			"count":1100,
			"max":[
				0.2060597538948059,
				0.0979231745004654,
				0.08532063663005829
			],
			"min":[
				-0.20611537992954254,
				-0.001874338835477829,
				-0.08885638415813446
			],
			"type":"VEC3"
		},
		{
			"bufferView":1,
			"componentType":5126,
			"count":1100,
			"type":"VEC3"
		},
		{
			"bufferView":2,
			"componentType":5126,
			"count":1100,
			"type":"VEC2"
		},
		{
			"bufferView":3,
			"componentType":5123,
			"count":3336,
			"type":"SCALAR"
		},
		{
			"bufferView":5,
			"componentType":5126,
			"count":1008,
			"max":[
				0.2044721394777298,
				0.09602571278810501,
				0.08373314142227173
			],
			"min":[
				-0.2045278549194336,
				5.165673792362213e-05,
				-0.08726893365383148
			],
			"type":"VEC3"
		},
		{
			"bufferView":6,
			"componentType":5126,
			"count":1008,
			"type":"VEC3"
		},
		{
			"bufferView":7,
			"componentType":5126,
			"count":1008,
			"type":"VEC2"
		},
		{
			"bufferView":8,
			"componentType":5123,
			"count":3336,
			"type":"SCALAR"
		},
		{
			"bufferView":9,
			"componentType":5126,
			"count":1502,
			"max":[
				0.2060597538948059,
				0.09699323773384094,
				0.08439068496227264
			],
			"min":[
				-0.20611537992954254,
				-0.001874338835477829,
				-0.08885635435581207
			],
			"type":"VEC3"
		},
		{
			"bufferView":10,
			"componentType":5126,
			"count":1502,
			"type":"VEC3"
		},
		{
			"bufferView":11,
			"componentType":5126,
			"count":1502,
			"type":"VEC2"
		},
		{
			"bufferView":12,
			"componentType":5123,
			"count":3540,
			"type":"SCALAR"
		}
	],
	"bufferViews":[
		{
			"buffer":0,
			"byteLength":13200,
			"byteOffset":0,
			"target":34962
		},
		{
			"buffer":0,
			"byteLength":13200,
			"byteOffset":13200,
			"target":34962
		},
		{
			"buffer":0,
			"byteLength":8800,
			"byteOffset":26400,
			"target":34962
		},
		{
			"buffer":0,
			"byteLength":6672,
			"byteOffset":35200,
			"target":34963
		},
		{
			"buffer":0,
			"byteLength":935969,
			"byteOffset":41872
		},
		{
			"buffer":0,
			"byteLength":12096,
			"byteOffset":977844,
			"target":34962
		},
		{
			"buffer":0,
			"byteLength":12096,
			"byteOffset":989940,
			"target":34962
		},
		{
			"buffer":0,
			"byteLength":8064,
			"byteOffset":1002036,
			"target":34962
		},
		{
			"buffer":0,
			"byteLength":6672,
			"byteOffset":1010100,
			"target":34963
		},
		{
			"buffer":0,
			"byteLength":18024,
			"byteOffset":1016772,
			"target":34962
		},
		{
			"buffer":0,
			"byteLength":18024,
			"byteOffset":1034796,
			"target":34962
		},
		{
			"buffer":0,
			"byteLength":12016,
			"byteOffset":1052820,
			"target":34962
		},
		{
			"buffer":0,
			"byteLength":7080,
			"byteOffset":1064836,
			"target":34963
		},
		{
			"buffer":0,
			"byteLength":767,
			"byteOffset":1071916
		}
	],
	"samplers":[
		{
			"magFilter":9729,
			"minFilter":9987
		}
	],
	"buffers":[
		{
			"byteLength":1072684,
			"uri":"data:application/octet-stream;base64,"
		}
	]
}
